<?xml version="1.0" standalone="no"?>
<!DOCTYPE svg PUBLIC "-//W3C//DTD SVG 20010904//EN"
 "http://www.w3.org/TR/2001/REC-SVG-20010904/DTD/svg10.dtd">
<svg version="1.0" xmlns="http://www.w3.org/2000/svg"
 width="4167.000000pt" height="4167.000000pt" viewBox="0 0 4167.000000 4167.000000"
 preserveAspectRatio="xMidYMid meet">

<g transform="translate(0.000000,4167.000000) scale(0.100000,-0.100000)"
fill="#000000" stroke="none">
<path d="M13504 22595 l7 -14425 -948 0 -948 0 -1145 -1145 -1145 -1145 1145
-1145 1145 -1145 947 0 948 0 0 -228 0 -227 1148 -1148 1147 -1147 1148 1148
1147 1147 0 227 0 227 2498 4 c1801 3 2532 7 2622 15 553 52 849 92 1235 168
2256 444 4284 1647 5765 3421 1307 1566 2113 3523 2285 5553 54 637 45 1341
-25 1970 -228 2039 -1070 3947 -2427 5499 -278 317 -618 656 -938 936 -88 76
-363 304 -408 338 -15 10 7 37 181 212 423 429 769 855 1107 1365 841 1268
1335 2703 1461 4245 21 266 30 923 15 1181 -50 858 -194 1611 -461 2406 -500
1488 -1411 2854 -2591 3885 -1548 1352 -3460 2121 -5524 2223 -125 6 -1930 10
-4799 10 l-4599 0 7 -14425z m9191 9835 c982 -54 1870 -399 2610 -1015 1005
-835 1595 -2087 1595 -3388 0 -1017 -347 -1995 -987 -2780 -127 -155 -444
-477 -593 -600 -422 -350 -930 -631 -1440 -795 -113 -37 -384 -112 -402 -112
-5 0 -8 63 -8 140 l0 140 -25 0 -25 0 0 -2685 0 -2685 25 0 25 0 0 155 c0 131
2 155 15 155 8 0 79 -14 158 -30 1748 -371 3216 -1590 3900 -3240 376 -908
499 -1896 356 -2874 -167 -1148 -707 -2221 -1535 -3050 -426 -426 -894 -762
-1439 -1031 -606 -299 -1157 -458 -1880 -542 -137 -16 -350 -17 -2552 -20
l-2403 -4 0 6479 c0 3563 -3 9024 -7 12135 l-6 5657 2219 0 c1333 0 2291 -4
2399 -10z"/>
<path d="M20458 23313 l-1658 -3 0 -1974 0 -1974 453 -6 c248 -4 1141 -6 1982
-4 l1530 3 3 803 2 802 -980 0 -980 0 0 348 0 349 443 6 c243 4 684 7 980 7
l537 0 -2 823 -3 822 -325 0 c-179 0 -1071 -1 -1982 -2z"/>
</g>
</svg>
